<svg width="200" height="200" viewBox="0 0 200 200" fill="none" xmlns="http://www.w3.org/2000/svg">
<path d="M170 105.086C171.105 106.999 170.449 109.445 168.536 110.55L158.391 116.407C156.477 117.512 154.031 116.856 152.926 114.943L142.28 96.5039C141.176 94.5907 138.73 93.9352 136.816 95.0398L56.8951 141.182C54.9819 142.287 52.5355 141.631 51.431 139.718L46.0594 130.414C44.9548 128.501 45.6103 126.055 47.5235 124.95L73.7055 109.834L74.8842 111.876C76.2465 114.235 79.2631 115.043 81.6223 113.681L83.4711 112.614C85.8301 111.252 86.6384 108.235 85.2765 105.876L84.0978 103.834L87.5619 101.834L90.2406 106.474C91.6029 108.833 94.6195 109.641 96.9787 108.279L98.8275 107.212C101.187 105.85 101.995 102.833 100.633 100.474L97.9542 95.8341L101.418 93.8341L101.597 94.1436C102.959 96.5027 105.976 97.311 108.335 95.9491L110.184 94.8817C112.543 93.5195 113.351 90.5029 111.989 88.1436L111.811 87.8341L127.445 78.8077C129.358 77.7032 130.013 75.2568 128.909 73.3436L117.926 54.3215C116.822 52.4084 117.477 49.962 119.391 48.8574L129.536 43C131.449 41.8954 133.895 42.5509 135 44.4641L170 105.086ZM73.7055 109.834L68.8168 101.367C67.4549 99.0074 68.2632 95.9908 70.6223 94.6286L72.4711 93.5612C74.8303 92.1993 77.8469 93.0076 79.2092 95.3667L84.0978 103.834L73.7055 109.834ZM87.5619 101.834L84.1733 95.9648C82.8114 93.6055 83.6196 90.5889 85.9787 89.2267L87.8275 88.1593C90.1867 86.7974 93.2033 87.6057 94.5656 89.9648L97.9542 95.8341L87.5619 101.834ZM101.418 93.8341L95.5297 83.6346C94.1678 81.2754 94.9761 78.2588 97.3351 76.8965L99.1839 75.8292C101.543 74.4673 104.56 75.2756 105.922 77.6346L111.811 87.8341L101.418 93.8341Z" fill="#E3B53A"/>
</svg>
